<?xml version="1.0" standalone="no"?>
<!DOCTYPE svg PUBLIC "-//W3C//DTD SVG 20010904//EN"
 "http://www.w3.org/TR/2001/REC-SVG-20010904/DTD/svg10.dtd">
<svg version="1.0" xmlns="http://www.w3.org/2000/svg"
 width="1014.000000pt" height="661.000000pt" viewBox="0 0 1014.000000 661.000000"
 preserveAspectRatio="xMidYMid meet">

<g transform="translate(0.000000,661.000000) scale(0.100000,-0.100000)"
fill="#000000" stroke="none">
<path d="M1240 4543 c-300 -52 -522 -251 -630 -563 -136 -397 -75 -846 174
-1285 43 -76 128 -188 231 -304 40 -44 165 -147 242 -200 75 -50 228 -126 298
-146 27 -9 336 -83 685 -165 349 -83 727 -172 840 -200 113 -27 268 -63 345
-80 77 -18 203 -47 280 -66 77 -19 219 -53 315 -75 96 -22 308 -71 470 -110
522 -125 782 -186 905 -214 66 -15 239 -56 386 -91 375 -90 464 -100 627 -69
474 90 765 489 765 1050 0 611 -370 1211 -911 1480 -118 59 -172 75 -432 129
-345 72 -1559 329 -1870 396 -157 34 -357 77 -445 95 -427 89 -1031 215 -1120
233 -55 11 -244 50 -420 86 -511 107 -508 106 -613 105 -53 -1 -108 -4 -122
-6z m935 -1048 l-50 -13 48 -1 c26 0 47 -5 47 -10 0 -4 -10 -6 -23 -4 -28 5
-80 -14 -72 -26 5 -9 -29 -35 -46 -36 -3 0 -13 -7 -22 -15 -39 -35 -47 -41
-47 -30 0 6 -5 8 -11 5 -23 -15 24 72 54 98 37 32 76 45 132 45 l40 0 -50 -13z
m82 -1 c-3 -3 -12 -4 -19 -1 -8 3 -5 6 6 6 11 1 17 -2 13 -5z m-87 -104 c0 -5
-5 -10 -11 -10 -5 0 -7 5 -4 10 3 6 8 10 11 10 2 0 4 -4 4 -10z m-89 -109
c-10 -30 -17 -42 -19 -31 -3 16 23 80 32 80 1 0 -5 -22 -13 -49z m20 -108 c13
-16 12 -17 -3 -4 -10 7 -18 15 -18 17 0 8 8 3 21 -13z m44 -31 c-3 -3 -11 0
-18 7 -9 10 -8 11 6 5 10 -3 15 -9 12 -12z m88 -99 c-7 -2 -21 -2 -30 0 -10 3
-4 5 12 5 17 0 24 -2 18 -5z m-188 -258 c44 -18 80 -25 135 -26 41 0 69 -3 63
-6 -21 -8 -16 -63 5 -64 14 0 14 -2 -3 -9 -37 -16 -134 -11 -196 10 -59 20
-139 64 -139 76 0 4 6 2 13 -3 6 -6 20 -13 29 -16 15 -5 16 -2 8 18 -5 14 -6
24 -2 24 20 -3 33 2 27 11 -8 13 -9 13 60 -15z m4099 -556 c54 -43 19 -101
-48 -79 -47 15 -70 43 -62 75 5 21 12 25 45 25 24 0 48 -8 65 -21z m140 -30
c18 -16 18 -21 6 -44 -12 -23 -12 -28 0 -35 13 -8 13 -10 -1 -10 -9 0 -24 9
-34 20 -10 11 -24 20 -32 20 -7 0 -13 5 -13 11 0 7 11 8 29 4 18 -4 32 -2 36
5 10 16 -5 28 -43 36 -32 6 -32 6 -32 -35 0 -22 -4 -41 -10 -41 -5 0 -10 23
-10 51 l0 51 43 -7 c23 -4 51 -15 61 -26z m106 -13 c20 -9 25 -19 27 -53 3
-48 -5 -53 -64 -41 l-43 9 0 55 c0 54 0 54 28 48 15 -4 38 -12 52 -18z m137
-32 c17 -11 22 -22 20 -51 -2 -37 -3 -38 -43 -37 -67 1 -74 7 -74 65 l0 51 38
-7 c20 -3 47 -13 59 -21z m96 -15 c20 -5 37 -14 37 -19 0 -5 -6 -8 -12 -6 -49
15 -68 16 -68 1 0 -10 10 -15 28 -15 30 0 60 -15 50 -25 -3 -4 -22 -2 -42 3
-29 8 -36 8 -36 -4 0 -8 15 -16 40 -20 22 -4 40 -11 40 -17 0 -9 -73 -2 -92 9
-4 3 -8 27 -8 55 0 54 2 55 63 38z m152 -41 c6 -6 -6 -8 -35 -6 -36 2 -45 0
-48 -15 -5 -24 16 -47 42 -47 26 0 71 -29 46 -30 -30 0 -83 20 -96 37 -19 25
-17 60 3 72 20 10 72 4 88 -11z"/>
<path d="M6050 2209 c0 -23 58 -53 84 -43 39 15 -2 64 -52 64 -26 0 -32 -4
-32 -21z"/>
<path d="M6330 2150 c0 -33 15 -44 52 -37 21 3 21 5 -9 16 -41 16 -43 33 -3
25 35 -7 42 11 8 20 -41 11 -48 7 -48 -24z"/>
<path d="M6450 2141 c0 -9 71 -23 79 -15 9 9 -23 24 -51 24 -16 0 -28 -4 -28
-9z"/>
<path d="M6450 2105 c0 -8 14 -17 35 -21 50 -9 55 2 10 20 -46 19 -45 19 -45
1z"/>
<path d="M7750 3896 c0 -2 8 -10 18 -17 15 -13 16 -12 3 4 -13 16 -21 21 -21
13z"/>
<path d="M9363 3249 c-6 -8 -14 -28 -17 -44 -5 -24 -4 -26 3 -10 9 18 10 18
10 2 1 -10 -4 -27 -10 -39 -6 -11 -8 -22 -6 -25 12 -11 38 61 35 94 -2 29 -5
34 -15 22z"/>
<path d="M9390 3220 c0 -23 -5 -50 -10 -61 -6 -10 -8 -19 -6 -19 3 0 12 13 21
30 17 33 20 76 5 85 -6 4 -10 -10 -10 -35z"/>
<path d="M8606 2837 c-13 -19 -19 -97 -8 -97 1 0 11 15 22 33 21 34 28 21 9
-16 -11 -21 -10 -21 6 -5 25 23 27 101 3 106 -9 2 -24 -7 -32 -21z m1 -59 c-3
-8 -6 -5 -6 6 -1 11 2 17 5 13 3 -3 4 -12 1 -19z"/>
</g>
</svg>
